HIERARCHY
ROOT Root
{
  OFFSET 0.7855 12.0067 -25.3902
  CHANNELS 6 Xposition Yposition Zposition Zrotation Xrotation Yrotation
  JOINT Spine
  {
    OFFSET 5.3114 0 0
    CHANNELS 3 Zrotation Xrotation Yrotation
    JOINT Spine1
    {
      OFFSET 2.79004 0 0
      CHANNELS 3 Zrotation Xrotation Yrotation
      JOINT Neck
      {
        OFFSET 1.43377 0 0
        CHANNELS 3 Zrotation Xrotation Yrotation
        JOINT Head
        {
          OFFSET 1.86043 0 0
          CHANNELS 3 Zrotation Xrotation Yrotation
          End Site
          {
            OFFSET 0 0 0
          }
        }
      }
      JOINT LeftArm
      {
        OFFSET 0.0387506 0 2.55754
        CHANNELS 3 Zrotation Xrotation Yrotation
        JOINT LeftForeArm
        {
          OFFSET 4.24845 0 0
          CHANNELS 3 Zrotation Xrotation Yrotation
          JOINT LeftHand
          {
            OFFSET 4.01008 0 0
            CHANNELS 3 Zrotation Xrotation Yrotation
            End Site
            {
              OFFSET 0 0 0
            }
          }
        }
      }
      JOINT RightArm
      {
        OFFSET 0.0387506 0 -2.55754
        CHANNELS 3 Zrotation Xrotation Yrotation
        JOINT RightForeArm
        {
          OFFSET -4.24845 0 0
          CHANNELS 3 Zrotation Xrotation Yrotation
          JOINT RightHand
          {
            OFFSET -4.01009 0 0
            CHANNELS 3 Zrotation Xrotation Yrotation
            End Site
            {
              OFFSET 0 0 0
            }
          }
        }
      }
    }
  }
  JOINT LeftUpLeg
  {
    OFFSET -1.23318 0 2.05692
    CHANNELS 3 Zrotation Xrotation Yrotation
    JOINT LeftLeg
    {
      OFFSET 5.46397 0 0
      CHANNELS 3 Zrotation Xrotation Yrotation
      JOINT LeftFoot
      {
        OFFSET 4.68898 0 0
        CHANNELS 3 Zrotation Xrotation Yrotation
        End Site
        {
          OFFSET 0 0 0
        }
      }
    }
  }
  JOINT RightUpLeg
  {
    OFFSET -1.24454 0 -2.05007
    CHANNELS 3 Zrotation Xrotation Yrotation
    JOINT RightLeg
    {
      OFFSET -5.46397 0 0
      CHANNELS 3 Zrotation Xrotation Yrotation
      JOINT RightFoot
      {
        OFFSET -4.68901 0 0
        CHANNELS 3 Zrotation Xrotation Yrotation
        End Site
        {
          OFFSET 0 0 0
        }
      }
    }
  }
}
MOTION
Frames:	14
Frame Time:	0.00833333
0.7855 12.0067 -25.3902 -0 90 90 9.69808e-018 1.34041e-020 0.158382 1.41245e-030 7.06225e-031 2.48481e-017 -7.30747e-017 7.61111e-019 -1.19349 3.40995e-017 1.65719e-019 0.556895 -2.12238e-008 -1.53545e-005 -90.1584 -2.50273e-005 -2.47192e-012 6.55612e-006 1.52588e-005 -6.98387e-015 174.455 180 -4.60993e-005 -89.8417 -5.49628e-005 -2.25992e-011 3.612e-005 1.52588e-005 6.98387e-015 174.455 -0.311653 0.00636236 179.241 -0.677964 0.00485997 -0.879793 0.366247 0.00300475 -178.362 179.155 0.0175156 179.241 -1.88521 0.0112199 -0.878998 1.0398 0.0110444 -178.678 
0.768786 11.948 -25.292 -166.507 88.463 -104.319 2.08633 0.556021 1.63154 -1.97244 0.0502782 1.42448 2.55116 -1.33504 -4.37022 -5.60535 -1.74384 3.01663 16.7363 -3.68099 -113.767 27.8415 8.70872 10.4622 -1.07618 -7.64225 174.325 -165.223 -4.05634 -109.188 32.4278 11.194 10.063 -0.26846 -1.91003 174.447 -9.48332 0.262693 179.587 -7.57248 0.126572 -0.813822 -2.33661 1.99141 -178.165 -175.93 -2.46441 177.353 -17.485 0.0769804 -0.718757 -0.127776 -1.63536 -178.814 
0.751513 11.8895 -25.2042 -167.584 86.8188 -104.119 4.24486 1.14276 3.20733 -4.13498 0.0995947 2.9773 5.11371 -2.7242 -7.7558 -11.3394 -3.5425 5.60504 29.8812 -14.0287 -137.818 53.7348 16.9175 22.2852 -2.26951 -15.7253 174.068 -153.6 -15.9556 -127.644 62.2789 21.8713 21.9486 -0.553177 -3.92969 174.431 -19.2214 0.519764 179.975 -14.6976 0.252382 -0.745648 -5.4171 4.11031 -177.936 -170.843 -5.14448 175.316 -33.7184 0.146188 -0.55444 -1.45769 -3.3914 -178.96 
0.735358 11.8305 -25.0954 -168.154 85.3893 -104.293 6.17328 1.66342 4.57955 -5.92482 0.150462 4.27346 7.21118 -3.94658 -10.7459 -16.3668 -5.18852 7.96476 34.4608 -25.7317 -159.698 73.8824 22.5319 33.9133 -3.4109 -22.9144 173.719 -149.325 -30.7408 -143.316 84.7115 29.1661 34.459 -0.808081 -5.72992 174.412 -27.8359 0.775364 -179.722 -21.3624 0.370008 -0.681887 -7.78376 5.96675 -177.763 -166.592 -7.3893 173.53 -48.6857 0.208512 -0.398276 -2.48626 -4.92859 -179.083 
0.722 11.7702 -24.9339 -167.944 84.4961 -104.939 7.58859 2.02348 5.44117 -6.77797 0.205561 4.92795 8.45914 -4.80656 -12.7267 -19.9244 -6.48939 9.72887 32.1064 -33.211 -176.458 86.557 25.1054 42.6075 -4.26362 -27.8787 173.396 -151.78 -41.8882 -156.103 98.0325 32.2933 44.2374 -0.986155 -6.98174 174.395 -33.6347 1.02732 -179.632 -26.8757 0.467171 -0.629153 -8.32988 7.16847 -177.739 -164.05 -8.58597 172.417 -60.4871 0.253619 -0.262491 -2.74384 -5.91835 -179.153 
0.712761 11.7087 -24.6978 -166.47 84.3861 -106.465 8.23679 2.15642 5.66105 -6.23183 0.26889 4.62426 8.85855 -5.21189 -13.269 -21.7159 -7.35706 10.6482 29.2708 -35.7504 177.296 91.4594 25.8642 46.139 -4.58817 -29.6729 173.261 -155.547 -46.0894 -163.037 102.544 32.8103 48.1644 -1.0479 -7.41456 174.388 -35.4867 1.28874 -179.801 -30.8548 0.536053 -0.592225 -6.20954 7.5495 -177.972 -163.676 -8.34508 172.195 -67.8698 0.276331 -0.15534 -1.93324 -6.19624 -179.154 
0.706453 11.6462 -24.4084 -163.692 84.8263 -109.023 8.34599 2.12807 5.41872 -4.68772 0.338151 3.63901 8.67394 -5.30115 -12.7804 -22.2746 -7.92275 10.9584 28.4732 -35.7705 179.823 91.3087 26.0319 45.8363 -4.50242 -29.2078 173.301 -157.178 -45.5837 -163.992 101.433 32.3798 47.6525 -1.02652 -7.26485 174.391 -34.5167 1.55618 179.843 -33.7344 0.584717 -0.56657 -2.19143 7.33942 -178.387 -164.845 -7.07942 172.615 -72.0956 0.282965 -0.0686369 -0.357867 -5.96304 -179.105 
0.700994 11.5826 -24.0992 -159.96 85.4195 -112.362 8.35999 2.04355 4.87281 -2.8783 0.406574 2.47684 7.93012 -5.23629 -11.8985 -22.0921 -8.3294 11.0157 28.2784 -34.6833 -174.23 89.1597 25.9793 43.9859 -4.27315 -27.9386 173.398 -157.76 -43.2033 -162.389 98.0344 31.5491 45.3961 -0.983639 -6.96422 174.395 -32.415 1.8027 179.347 -36.0491 0.624699 -0.544831 2.41082 6.73969 -178.801 -166.777 -5.38891 173.41 -75.0364 0.280433 0.0100491 1.552 -5.438 -179.026 
0.694299 11.5175 -23.8037 -156.612 85.7829 -115.249 8.72375 2.00807 4.18188 -1.53906 0.467371 1.64243 6.64948 -5.18019 -11.2614 -21.64 -8.715 11.1797 27.2598 -34.1255 -170.215 88.0083 26.0138 42.9013 -4.16356 -27.321 173.442 -158.889 -41.5852 -162.037 95.7241 30.857 44.0402 -0.980813 -6.94429 174.395 -30.8742 2.00129 178.76 -38.3339 0.667537 -0.519652 6.29339 5.95271 -179.035 -168.661 -3.87828 174.325 -78.5642 0.275649 0.0931501 3.36648 -4.84038 -178.935 
0.685624 11.4499 -23.5282 -154.318 85.8334 -116.948 9.64473 2.0667 3.2471 -0.722123 0.527051 1.22 4.38592 -5.13891 -10.9544 -20.7754 -9.11963 11.5399 25.2966 -34.693 -168.73 88.365 26.2376 42.9703 -4.22387 -27.6578 173.414 -160.923 -41.0863 -163.559 95.155 30.5014 43.9814 -1.0455 -7.39734 174.387 -30.2126 2.13767 177.987 -40.6955 0.717018 -0.487908 9.17552 4.85316 -179.022 -170.355 -2.57112 175.453 -83.0661 0.269836 0.185408 5.07588 -4.13928 -178.825 
0.676145 11.3803 -23.2559 -152.523 85.7755 -117.989 10.8587 2.1571 2.03086 -0.0842462 0.586444 0.957185 1.27538 -5.03739 -10.6657 -19.3376 -9.46867 11.906 23.0106 -35.4154 -167.23 88.7167 26.4584 43.0372 -4.32194 -28.201 173.368 -163.106 -40.3956 -165.101 94.5893 30.1472 43.9188 -1.14142 -8.06741 174.374 -29.5722 2.22815 177.038 -42.8608 0.76675 -0.453911 11.739 3.39317 -178.864 -172.308 -1.18718 176.876 -87.581 0.259514 0.279717 6.87146 -3.2476 -178.688 
0.666653 11.3107 -22.985 -151.79 85.6769 -117.973 12.1035 2.22396 0.783476 0.229966 0.630347 0.853758 -1.77742 -4.9211 -10.4372 -17.7641 -9.72656 12.2199 20.7711 -36.1378 -165.933 89.0834 26.6887 43.1045 -4.43688 -28.8306 173.314 -164.819 -39.6536 -166.435 94.0244 29.7931 43.8523 -1.23427 -8.71388 174.36 -28.8833 2.292 176.117 -44.7942 0.813009 -0.421456 14.1322 1.89179 -178.636 -174.519 0.113874 178.335 -91.9589 0.24454 0.370737 8.62772 -2.30027 -178.55 
0.657937 11.2433 -22.7137 -152.571 85.6021 -116.607 13.111 2.21259 -0.244504 0.0759757 0.643553 0.909491 -3.8666 -4.83576 -10.3105 -16.4942 -9.85828 12.423 18.9152 -36.7184 -165.077 89.4848 26.9407 43.175 -4.547 -29.4267 173.26 -165.475 -39.0143 -167.359 93.4578 29.4377 43.7814 -1.28931 -9.09611 174.352 -28.0762 2.34903 175.427 -46.4603 0.85207 -0.39434 16.493 0.66794 -178.408 -176.947 1.16975 179.572 -96.0497 0.22477 0.453128 10.2219 -1.43217 -178.435 
0.649297 11.1748 -22.4431 -155.867 85.5865 -112.953 13.8493 2.13698 -1.00144 -0.84872 0.626408 1.21317 -4.56071 -4.80567 -10.3296 -15.6456 -9.8252 12.4487 17.6122 -37.1746 -164.837 89.9342 27.2229 43.2517 -4.67301 -30.1001 173.197 -164.626 -38.5111 -167.74 92.8477 29.0544 43.698 -1.2941 -9.12934 174.351 -27.1375 2.4392 175.077 -47.8673 0.883294 -0.37277 18.9235 -0.190323 -178.18 -179.591 1.84781 -179.5 -99.9237 0.19884 0.527209 11.6509 -0.665612 -178.348 
